<?xml version="1.0" encoding="iso-8859-1"?>
<!-- Uploaded to: SVG Repo, www.svgrepo.com, Generator: SVG Repo Mixer Tools -->
<svg height="800px" width="800px" version="1.1" id="Layer_1" xmlns="http://www.w3.org/2000/svg" xmlns:xlink="http://www.w3.org/1999/xlink" 
	 viewBox="0 0 392.598 392.598" xml:space="preserve">
<path style="fill:#FFFFFF;" d="M246.076,88.178V21.98H80.581c-6.077,0-11.055,4.978-11.055,11.055v326.4
	c0,6.077,4.978,11.055,11.055,11.055h231.564c6.077,0,11.055-4.913,11.055-11.055V99.168h-66.069
	C250.989,99.168,246.076,94.255,246.076,88.178z"/>
<path style="fill:#56ACE0;" d="M257.131,99.168c-6.077,0-11.055-4.978-11.055-11.055V43.96H91.571v304.291h209.584V99.168H257.131z"
	/>
<g>
	<path style="fill:#194F82;" d="M207.03,85.463h-88.178c-6.077,0-11.055-4.978-11.055-11.055c0-6.077,4.913-11.055,11.055-11.055
		h88.178c6.077,0,11.055,4.913,11.055,11.055C218.084,80.549,213.107,85.463,207.03,85.463z"/>
	<path style="fill:#194F82;" d="M273.874,146.295H118.852c-6.077,0-11.055-4.913-11.055-11.055c0-6.077,4.913-11.055,11.055-11.055
		h155.022c6.077,0,11.055,4.913,11.055,11.055C284.929,141.446,279.951,146.295,273.874,146.295z"/>
	<path style="fill:#194F82;" d="M273.874,207.192h-45.511c-6.077,0-11.055-4.913-11.055-11.055c0-6.077,4.913-11.055,11.055-11.055
		h45.511c6.077,0,11.055,4.913,11.055,11.055C284.929,202.214,279.951,207.192,273.874,207.192z"/>
	<path style="fill:#194F82;" d="M273.874,268.089h-41.891c-6.077,0-11.055-4.913-11.055-11.055c0-6.141,4.913-11.055,11.055-11.055
		h41.891c6.077,0,11.055,4.913,11.055,11.055C284.929,263.176,279.951,268.089,273.874,268.089z"/>
	<path style="fill:#194F82;" d="M273.874,328.986h-61.479c-6.077,0-11.055-4.978-11.055-11.055c0-6.077,4.913-11.055,11.055-11.055
		h61.479c6.077,0,11.055,4.978,11.055,11.055C284.929,324.008,279.951,328.986,273.874,328.986z"/>
	<path style="fill:#194F82;" d="M335.547,73.891L271.353,9.632C265.082,3.426,256.808,0,247.951,0H80.581
		C62.286,0,47.418,14.869,47.418,33.099v326.4c0,18.23,14.869,33.099,33.099,33.099H312.08c18.23,0,33.099-14.869,33.099-33.099
		V97.228C345.244,88.436,341.818,80.032,335.547,73.891z M268.056,37.56l39.564,39.564h-39.564V37.56z M323.2,359.434
		c0,6.077-4.913,11.055-11.055,11.055H80.581c-6.077,0-11.055-4.913-11.055-11.055v-326.4c0-6.077,4.978-11.055,11.055-11.055
		h165.43v66.133c0,6.077,4.913,11.055,11.055,11.055H323.2V359.434L323.2,359.434z"/>
</g>
<polygon style="fill:#FFC10D;" points="307.62,77.123 268.056,37.56 268.056,77.123 "/>
<path style="fill:#194F82;" d="M152.727,176.42c-31.677,0-57.471,25.794-57.471,57.471c0,20.17,10.408,37.883,26.117,48.162v55.337
	c-0.323,9.762,11.378,14.481,18.166,8.404l13.123-11.119l13.123,11.119c8.792,6.659,18.295-1.034,18.166-8.404v-55.402
	c15.709-10.279,26.117-27.992,26.117-48.162C210.133,202.214,184.404,176.42,152.727,176.42z M161.907,313.6l-2.133-1.745
	c-4.073-3.491-10.149-3.491-14.222,0l-2.133,1.745v-23.014c3.038,0.453,6.077,0.84,9.244,0.84c3.168,0,6.271-0.323,9.244-0.84V313.6
	z M152.727,269.317c-19.523,0-35.362-15.903-35.362-35.362s15.903-35.362,35.362-35.362s35.362,15.903,35.362,35.362
	S172.185,269.317,152.727,269.317z"/>
<g>
	<path style="fill:#FFC10D;" d="M143.418,290.521v23.014l2.133-1.745c4.073-3.491,10.15-3.491,14.222,0l2.133,1.745v-23.014
		C158.868,291.038,151.24,292.008,143.418,290.521z"/>
	<path style="fill:#FFC10D;" d="M152.727,198.465c-19.523,0-35.362,15.903-35.362,35.362s15.903,35.362,35.362,35.362
		s35.362-15.903,35.362-35.362S172.185,198.465,152.727,198.465z"/>
</g>
</svg>